<mxfile host="app.diagrams.net" agent="Mozilla/5.0 (Windows NT 10.0; Win64; x64) AppleWebKit/537.36 (KHTML, like Gecko) Chrome/130.0.0.0 Safari/537.36 Edg/130.0.0.0" version="24.8.3" pages="4">
  <diagram name="Pagina-1" id="O56RF-wZaWgpWx-Mn2Pm">
    <mxGraphModel dx="1426" dy="755" grid="1" gridSize="10" guides="1" tooltips="1" connect="1" arrows="1" fold="1" page="1" pageScale="1" pageWidth="1169" pageHeight="827" math="0" shadow="0">
      <root>
        <mxCell id="0" />
        <mxCell id="1" parent="0" />
        <mxCell id="g5P4nxP4wFBGhKwL9key-1" value="VSTART lsb" style="rounded=0;whiteSpace=wrap;html=1;fontStyle=1;fontSize=18;" vertex="1" parent="1">
          <mxGeometry x="370" y="144" width="160" height="40" as="geometry" />
        </mxCell>
        <mxCell id="g5P4nxP4wFBGhKwL9key-4" value="HSTART msb" style="rounded=0;whiteSpace=wrap;html=1;fontStyle=1;fontSize=18;" vertex="1" parent="1">
          <mxGeometry x="530" y="144" width="160" height="40" as="geometry" />
        </mxCell>
        <mxCell id="g5P4nxP4wFBGhKwL9key-5" value="VSTOP lsb" style="rounded=0;whiteSpace=wrap;html=1;fontStyle=1;fontSize=18;" vertex="1" parent="1">
          <mxGeometry x="690" y="144" width="160" height="40" as="geometry" />
        </mxCell>
        <mxCell id="g5P4nxP4wFBGhKwL9key-41" style="edgeStyle=orthogonalEdgeStyle;rounded=0;orthogonalLoop=1;jettySize=auto;html=1;entryX=1;entryY=0.5;entryDx=0;entryDy=0;exitX=1;exitY=0.5;exitDx=0;exitDy=0;strokeWidth=4;strokeColor=#0000FF;" edge="1" parent="1" source="g5P4nxP4wFBGhKwL9key-7" target="g5P4nxP4wFBGhKwL9key-23">
          <mxGeometry relative="1" as="geometry">
            <Array as="points">
              <mxPoint x="1090" y="164" />
              <mxPoint x="1090" y="680" />
            </Array>
          </mxGeometry>
        </mxCell>
        <mxCell id="g5P4nxP4wFBGhKwL9key-7" value="control bits" style="rounded=0;whiteSpace=wrap;html=1;fontStyle=1;fontSize=18;" vertex="1" parent="1">
          <mxGeometry x="850" y="144" width="160" height="40" as="geometry" />
        </mxCell>
        <mxCell id="g5P4nxP4wFBGhKwL9key-8" value="ROW 1, plane 1" style="rounded=0;whiteSpace=wrap;html=1;fontStyle=1;fontSize=18;" vertex="1" parent="1">
          <mxGeometry x="370" y="224" width="320" height="40" as="geometry" />
        </mxCell>
        <mxCell id="g5P4nxP4wFBGhKwL9key-9" value="ROW 1, plane 2" style="rounded=0;whiteSpace=wrap;html=1;fontStyle=1;fontSize=18;" vertex="1" parent="1">
          <mxGeometry x="690" y="224" width="320" height="40" as="geometry" />
        </mxCell>
        <mxCell id="g5P4nxP4wFBGhKwL9key-10" value="ROW N, plane 1" style="rounded=0;whiteSpace=wrap;html=1;fontStyle=1;fontSize=18;" vertex="1" parent="1">
          <mxGeometry x="370" y="304" width="320" height="40" as="geometry" />
        </mxCell>
        <mxCell id="g5P4nxP4wFBGhKwL9key-11" value="ROW N, plane 2" style="rounded=0;whiteSpace=wrap;html=1;fontStyle=1;fontSize=18;" vertex="1" parent="1">
          <mxGeometry x="690" y="304" width="320" height="40" as="geometry" />
        </mxCell>
        <mxCell id="g5P4nxP4wFBGhKwL9key-12" value="0" style="rounded=0;whiteSpace=wrap;html=1;fontStyle=1;fontSize=20;" vertex="1" parent="1">
          <mxGeometry x="370" y="384" width="320" height="40" as="geometry" />
        </mxCell>
        <mxCell id="g5P4nxP4wFBGhKwL9key-13" value="0" style="rounded=0;whiteSpace=wrap;html=1;fontStyle=1;fontSize=20;" vertex="1" parent="1">
          <mxGeometry x="690" y="384" width="320" height="40" as="geometry" />
        </mxCell>
        <mxCell id="g5P4nxP4wFBGhKwL9key-14" value="" style="endArrow=classic;startArrow=classic;html=1;rounded=0;" edge="1" parent="1">
          <mxGeometry width="50" height="50" relative="1" as="geometry">
            <mxPoint x="370" y="124" as="sourcePoint" />
            <mxPoint x="690" y="124" as="targetPoint" />
          </mxGeometry>
        </mxCell>
        <mxCell id="g5P4nxP4wFBGhKwL9key-15" value="&lt;b style=&quot;font-size: 18px;&quot;&gt;SPRxPOS&lt;/b&gt;" style="text;html=1;align=center;verticalAlign=middle;whiteSpace=wrap;rounded=0;fontSize=18;" vertex="1" parent="1">
          <mxGeometry x="500" y="84" width="60" height="30" as="geometry" />
        </mxCell>
        <mxCell id="g5P4nxP4wFBGhKwL9key-16" value="" style="endArrow=classic;startArrow=classic;html=1;rounded=0;" edge="1" parent="1">
          <mxGeometry width="50" height="50" relative="1" as="geometry">
            <mxPoint x="690" y="124" as="sourcePoint" />
            <mxPoint x="1010" y="124" as="targetPoint" />
          </mxGeometry>
        </mxCell>
        <mxCell id="g5P4nxP4wFBGhKwL9key-17" value="&lt;b style=&quot;font-size: 18px;&quot;&gt;SPRxCTL&lt;/b&gt;" style="text;html=1;align=center;verticalAlign=middle;whiteSpace=wrap;rounded=0;fontSize=18;" vertex="1" parent="1">
          <mxGeometry x="820" y="84" width="60" height="30" as="geometry" />
        </mxCell>
        <mxCell id="g5P4nxP4wFBGhKwL9key-18" value="&lt;b&gt;&lt;font style=&quot;font-size: 18px;&quot;&gt;Sprite data strucure&lt;/font&gt;&lt;/b&gt;" style="text;html=1;align=left;verticalAlign=middle;whiteSpace=wrap;rounded=0;" vertex="1" parent="1">
          <mxGeometry x="600" y="20" width="200" height="30" as="geometry" />
        </mxCell>
        <mxCell id="g5P4nxP4wFBGhKwL9key-19" value="" style="html=1;shadow=0;dashed=0;align=center;verticalAlign=middle;shape=mxgraph.arrows2.arrow;dy=0.6;dx=40;notch=0;" vertex="1" parent="1">
          <mxGeometry x="240" y="130" width="100" height="36" as="geometry" />
        </mxCell>
        <mxCell id="g5P4nxP4wFBGhKwL9key-20" value="&lt;b style=&quot;font-size: 18px;&quot;&gt;&lt;font style=&quot;font-size: 18px;&quot;&gt;SPR0PT&lt;/font&gt;&lt;/b&gt;&lt;div style=&quot;font-size: 18px;&quot;&gt;&lt;b&gt;&lt;font style=&quot;font-size: 18px;&quot;&gt;Sprite pointer&lt;/font&gt;&lt;/b&gt;&lt;/div&gt;" style="text;html=1;align=center;verticalAlign=middle;whiteSpace=wrap;rounded=0;" vertex="1" parent="1">
          <mxGeometry x="70" y="130" width="130" height="30" as="geometry" />
        </mxCell>
        <mxCell id="g5P4nxP4wFBGhKwL9key-21" value="" style="endArrow=classic;startArrow=classic;html=1;rounded=0;" edge="1" parent="1">
          <mxGeometry width="50" height="50" relative="1" as="geometry">
            <mxPoint x="370" y="470" as="sourcePoint" />
            <mxPoint x="690" y="470" as="targetPoint" />
          </mxGeometry>
        </mxCell>
        <mxCell id="g5P4nxP4wFBGhKwL9key-22" value="&lt;b&gt;&lt;font style=&quot;font-size: 18px;&quot;&gt;1 WORD, 16 bit&lt;/font&gt;&lt;/b&gt;" style="text;html=1;align=center;verticalAlign=middle;whiteSpace=wrap;rounded=0;" vertex="1" parent="1">
          <mxGeometry x="450" y="480" width="160" height="30" as="geometry" />
        </mxCell>
        <mxCell id="g5P4nxP4wFBGhKwL9key-23" value="&lt;b style=&quot;font-size: 18px;&quot;&gt;&lt;font style=&quot;font-size: 18px;&quot;&gt;HSTART&lt;/font&gt;&lt;/b&gt;&lt;div style=&quot;font-size: 18px;&quot;&gt;&lt;b&gt;&lt;font style=&quot;font-size: 18px;&quot;&gt;lsb&lt;/font&gt;&lt;/b&gt;&lt;/div&gt;" style="rounded=0;whiteSpace=wrap;html=1;" vertex="1" parent="1">
          <mxGeometry x="880" y="640" width="80" height="80" as="geometry" />
        </mxCell>
        <mxCell id="g5P4nxP4wFBGhKwL9key-24" value="&lt;span style=&quot;font-size: 18px;&quot;&gt;&lt;b&gt;VSTOP&lt;/b&gt;&lt;/span&gt;&lt;div&gt;&lt;span style=&quot;font-size: 18px;&quot;&gt;&lt;b&gt;msb&lt;/b&gt;&lt;/span&gt;&lt;/div&gt;" style="rounded=0;whiteSpace=wrap;html=1;" vertex="1" parent="1">
          <mxGeometry x="800" y="640" width="80" height="80" as="geometry" />
        </mxCell>
        <mxCell id="g5P4nxP4wFBGhKwL9key-25" value="&lt;span style=&quot;font-size: 18px;&quot;&gt;&lt;b&gt;VSTART&lt;/b&gt;&lt;/span&gt;&lt;div&gt;&lt;span style=&quot;font-size: 18px;&quot;&gt;&lt;b&gt;msb&lt;/b&gt;&lt;/span&gt;&lt;/div&gt;" style="rounded=0;whiteSpace=wrap;html=1;" vertex="1" parent="1">
          <mxGeometry x="720" y="640" width="80" height="80" as="geometry" />
        </mxCell>
        <mxCell id="g5P4nxP4wFBGhKwL9key-26" value="&lt;span style=&quot;font-size: 18px;&quot;&gt;&lt;b&gt;N/U&lt;/b&gt;&lt;/span&gt;" style="rounded=0;whiteSpace=wrap;html=1;" vertex="1" parent="1">
          <mxGeometry x="640" y="640" width="80" height="80" as="geometry" />
        </mxCell>
        <mxCell id="g5P4nxP4wFBGhKwL9key-27" value="&lt;span style=&quot;font-size: 18px;&quot;&gt;&lt;b&gt;N/U&lt;/b&gt;&lt;/span&gt;" style="rounded=0;whiteSpace=wrap;html=1;" vertex="1" parent="1">
          <mxGeometry x="560" y="640" width="80" height="80" as="geometry" />
        </mxCell>
        <mxCell id="g5P4nxP4wFBGhKwL9key-28" value="&lt;span style=&quot;font-size: 18px;&quot;&gt;&lt;b&gt;N/U&lt;/b&gt;&lt;/span&gt;" style="rounded=0;whiteSpace=wrap;html=1;" vertex="1" parent="1">
          <mxGeometry x="480" y="640" width="80" height="80" as="geometry" />
        </mxCell>
        <mxCell id="g5P4nxP4wFBGhKwL9key-29" value="&lt;span style=&quot;font-size: 18px;&quot;&gt;&lt;b&gt;N/U&lt;/b&gt;&lt;/span&gt;" style="rounded=0;whiteSpace=wrap;html=1;" vertex="1" parent="1">
          <mxGeometry x="400" y="640" width="80" height="80" as="geometry" />
        </mxCell>
        <mxCell id="g5P4nxP4wFBGhKwL9key-30" value="&lt;span style=&quot;font-size: 18px;&quot;&gt;&lt;b&gt;attach&lt;/b&gt;&lt;/span&gt;" style="rounded=0;whiteSpace=wrap;html=1;" vertex="1" parent="1">
          <mxGeometry x="320" y="640" width="80" height="80" as="geometry" />
        </mxCell>
        <mxCell id="g5P4nxP4wFBGhKwL9key-31" value="0" style="text;html=1;align=center;verticalAlign=middle;whiteSpace=wrap;rounded=0;fontStyle=1;fontSize=18;" vertex="1" parent="1">
          <mxGeometry x="890" y="730" width="60" height="30" as="geometry" />
        </mxCell>
        <mxCell id="g5P4nxP4wFBGhKwL9key-32" value="1" style="text;html=1;align=center;verticalAlign=middle;whiteSpace=wrap;rounded=0;fontStyle=1;fontSize=18;" vertex="1" parent="1">
          <mxGeometry x="810" y="730" width="60" height="30" as="geometry" />
        </mxCell>
        <mxCell id="g5P4nxP4wFBGhKwL9key-33" value="2" style="text;html=1;align=center;verticalAlign=middle;whiteSpace=wrap;rounded=0;fontStyle=1;fontSize=18;" vertex="1" parent="1">
          <mxGeometry x="730" y="730" width="60" height="30" as="geometry" />
        </mxCell>
        <mxCell id="g5P4nxP4wFBGhKwL9key-34" value="3" style="text;html=1;align=center;verticalAlign=middle;whiteSpace=wrap;rounded=0;fontStyle=1;fontSize=18;" vertex="1" parent="1">
          <mxGeometry x="650" y="730" width="60" height="30" as="geometry" />
        </mxCell>
        <mxCell id="g5P4nxP4wFBGhKwL9key-35" value="4" style="text;html=1;align=center;verticalAlign=middle;whiteSpace=wrap;rounded=0;fontStyle=1;fontSize=18;" vertex="1" parent="1">
          <mxGeometry x="570" y="730" width="60" height="30" as="geometry" />
        </mxCell>
        <mxCell id="g5P4nxP4wFBGhKwL9key-36" value="5" style="text;html=1;align=center;verticalAlign=middle;whiteSpace=wrap;rounded=0;fontStyle=1;fontSize=18;" vertex="1" parent="1">
          <mxGeometry x="490" y="730" width="60" height="30" as="geometry" />
        </mxCell>
        <mxCell id="g5P4nxP4wFBGhKwL9key-37" value="6" style="text;html=1;align=center;verticalAlign=middle;whiteSpace=wrap;rounded=0;fontStyle=1;fontSize=18;" vertex="1" parent="1">
          <mxGeometry x="410" y="730" width="60" height="30" as="geometry" />
        </mxCell>
        <mxCell id="g5P4nxP4wFBGhKwL9key-38" value="7" style="text;html=1;align=center;verticalAlign=middle;whiteSpace=wrap;rounded=0;fontStyle=1;fontSize=18;" vertex="1" parent="1">
          <mxGeometry x="330" y="730" width="60" height="30" as="geometry" />
        </mxCell>
        <mxCell id="g5P4nxP4wFBGhKwL9key-39" value="&lt;b&gt;&lt;font style=&quot;font-size: 18px;&quot;&gt;bit&lt;/font&gt;&lt;/b&gt;" style="text;html=1;align=center;verticalAlign=middle;whiteSpace=wrap;rounded=0;" vertex="1" parent="1">
          <mxGeometry x="980" y="730" width="60" height="30" as="geometry" />
        </mxCell>
        <mxCell id="g5P4nxP4wFBGhKwL9key-40" value="&lt;b&gt;&lt;font style=&quot;font-size: 18px;&quot;&gt;control bits&lt;/font&gt;&lt;/b&gt;" style="text;html=1;align=left;verticalAlign=middle;whiteSpace=wrap;rounded=0;" vertex="1" parent="1">
          <mxGeometry x="320" y="580" width="110" height="30" as="geometry" />
        </mxCell>
      </root>
    </mxGraphModel>
  </diagram>
  <diagram id="PfxV0DjCNvPsf5SI0xeH" name="Pagina-2">
    <mxGraphModel dx="1426" dy="755" grid="1" gridSize="10" guides="1" tooltips="1" connect="1" arrows="1" fold="1" page="1" pageScale="1" pageWidth="1169" pageHeight="827" math="0" shadow="0">
      <root>
        <mxCell id="0" />
        <mxCell id="1" parent="0" />
        <mxCell id="uSHZF3j3qYCOnk3RpQ0m-1" value="VSTART&amp;nbsp;&lt;div style=&quot;font-size: 18px;&quot;&gt;lsb&lt;/div&gt;" style="rounded=0;whiteSpace=wrap;html=1;fontStyle=1;fontSize=18;" vertex="1" parent="1">
          <mxGeometry x="200" y="80" width="520" height="80" as="geometry" />
        </mxCell>
        <mxCell id="yI5Vy5A7uUHxjE2J_BJA-1" style="edgeStyle=orthogonalEdgeStyle;rounded=0;orthogonalLoop=1;jettySize=auto;html=1;entryX=0.5;entryY=0;entryDx=0;entryDy=0;" edge="1" parent="1" source="dcoF1yfPDG6jPRslSzHU-1" target="Epljisk60Xq-GH6q-NGT-1">
          <mxGeometry relative="1" as="geometry" />
        </mxCell>
        <mxCell id="dcoF1yfPDG6jPRslSzHU-1" value="&lt;div style=&quot;font-size: 18px;&quot;&gt;VSTART&lt;/div&gt;msb" style="rounded=0;whiteSpace=wrap;html=1;fontStyle=1;fontSize=18;" vertex="1" parent="1">
          <mxGeometry x="120" y="80" width="80" height="80" as="geometry" />
        </mxCell>
        <mxCell id="ATkSCAehWMQ1Zl26Xpur-1" value="" style="endArrow=classic;startArrow=classic;html=1;rounded=0;" edge="1" parent="1">
          <mxGeometry width="50" height="50" relative="1" as="geometry">
            <mxPoint x="200" y="200" as="sourcePoint" />
            <mxPoint x="720" y="200" as="targetPoint" />
          </mxGeometry>
        </mxCell>
        <mxCell id="ATkSCAehWMQ1Zl26Xpur-2" value="&lt;font style=&quot;font-size: 18px;&quot;&gt;&lt;b&gt;bit 8-15 di&amp;nbsp;SPRxPOS&lt;/b&gt;&lt;/font&gt;" style="text;html=1;align=center;verticalAlign=middle;whiteSpace=wrap;rounded=0;" vertex="1" parent="1">
          <mxGeometry x="365" y="210" width="220" height="30" as="geometry" />
        </mxCell>
        <mxCell id="Epljisk60Xq-GH6q-NGT-1" value="&lt;font style=&quot;font-size: 18px;&quot;&gt;&lt;b&gt;bit 2 di&amp;nbsp;SPRxCTL&lt;/b&gt;&lt;/font&gt;" style="text;html=1;align=center;verticalAlign=middle;whiteSpace=wrap;rounded=0;" vertex="1" parent="1">
          <mxGeometry x="50" y="210" width="220" height="30" as="geometry" />
        </mxCell>
        <mxCell id="ocA2tSahjd9f5oLoO5Jn-1" value="HSTART&amp;nbsp;&lt;div style=&quot;font-size: 18px;&quot;&gt;msb&lt;/div&gt;" style="rounded=0;whiteSpace=wrap;html=1;fontStyle=1;fontSize=18;" vertex="1" parent="1">
          <mxGeometry x="120" y="480" width="520" height="80" as="geometry" />
        </mxCell>
        <mxCell id="ocA2tSahjd9f5oLoO5Jn-2" value="" style="endArrow=classic;startArrow=classic;html=1;rounded=0;" edge="1" parent="1">
          <mxGeometry width="50" height="50" relative="1" as="geometry">
            <mxPoint x="120" y="600" as="sourcePoint" />
            <mxPoint x="640" y="600" as="targetPoint" />
          </mxGeometry>
        </mxCell>
        <mxCell id="ocA2tSahjd9f5oLoO5Jn-3" value="&lt;font style=&quot;font-size: 18px;&quot;&gt;&lt;b&gt;bit 0-7 di&amp;nbsp;SPRxPOS&lt;/b&gt;&lt;/font&gt;" style="text;html=1;align=center;verticalAlign=middle;whiteSpace=wrap;rounded=0;" vertex="1" parent="1">
          <mxGeometry x="285" y="610" width="220" height="30" as="geometry" />
        </mxCell>
        <mxCell id="-Ovm4kfydW7wQwRMcPBF-1" style="edgeStyle=orthogonalEdgeStyle;rounded=0;orthogonalLoop=1;jettySize=auto;html=1;entryX=0.5;entryY=0;entryDx=0;entryDy=0;" edge="1" parent="1" source="-Ovm4kfydW7wQwRMcPBF-2" target="-Ovm4kfydW7wQwRMcPBF-3">
          <mxGeometry relative="1" as="geometry" />
        </mxCell>
        <mxCell id="-Ovm4kfydW7wQwRMcPBF-2" value="&lt;div style=&quot;font-size: 18px;&quot;&gt;HSTART&lt;/div&gt;lsb" style="rounded=0;whiteSpace=wrap;html=1;fontStyle=1;fontSize=18;" vertex="1" parent="1">
          <mxGeometry x="640" y="480" width="80" height="80" as="geometry" />
        </mxCell>
        <mxCell id="-Ovm4kfydW7wQwRMcPBF-3" value="&lt;font style=&quot;font-size: 18px;&quot;&gt;&lt;b&gt;bit 0 di&amp;nbsp;SPRxCTL&lt;/b&gt;&lt;/font&gt;" style="text;html=1;align=center;verticalAlign=middle;whiteSpace=wrap;rounded=0;" vertex="1" parent="1">
          <mxGeometry x="570" y="610" width="220" height="30" as="geometry" />
        </mxCell>
        <mxCell id="Qe8LcL6ympDJjXJdpqLM-1" value="VSTOP&amp;nbsp;&lt;div style=&quot;font-size: 18px;&quot;&gt;lsb&lt;/div&gt;" style="rounded=0;whiteSpace=wrap;html=1;fontStyle=1;fontSize=18;" vertex="1" parent="1">
          <mxGeometry x="200" y="280" width="520" height="80" as="geometry" />
        </mxCell>
        <mxCell id="Qe8LcL6ympDJjXJdpqLM-2" style="edgeStyle=orthogonalEdgeStyle;rounded=0;orthogonalLoop=1;jettySize=auto;html=1;entryX=0.5;entryY=0;entryDx=0;entryDy=0;" edge="1" parent="1" source="Qe8LcL6ympDJjXJdpqLM-3" target="Qe8LcL6ympDJjXJdpqLM-6">
          <mxGeometry relative="1" as="geometry" />
        </mxCell>
        <mxCell id="Qe8LcL6ympDJjXJdpqLM-3" value="&lt;div style=&quot;font-size: 18px;&quot;&gt;VSTOP&lt;/div&gt;msb" style="rounded=0;whiteSpace=wrap;html=1;fontStyle=1;fontSize=18;" vertex="1" parent="1">
          <mxGeometry x="120" y="280" width="80" height="80" as="geometry" />
        </mxCell>
        <mxCell id="Qe8LcL6ympDJjXJdpqLM-4" value="" style="endArrow=classic;startArrow=classic;html=1;rounded=0;" edge="1" parent="1">
          <mxGeometry width="50" height="50" relative="1" as="geometry">
            <mxPoint x="200" y="400" as="sourcePoint" />
            <mxPoint x="720" y="400" as="targetPoint" />
          </mxGeometry>
        </mxCell>
        <mxCell id="Qe8LcL6ympDJjXJdpqLM-5" value="&lt;font style=&quot;font-size: 18px;&quot;&gt;&lt;b&gt;bit 8-15 di&amp;nbsp;SPRxCTL&lt;/b&gt;&lt;/font&gt;" style="text;html=1;align=center;verticalAlign=middle;whiteSpace=wrap;rounded=0;" vertex="1" parent="1">
          <mxGeometry x="365" y="410" width="220" height="30" as="geometry" />
        </mxCell>
        <mxCell id="Qe8LcL6ympDJjXJdpqLM-6" value="&lt;font style=&quot;font-size: 18px;&quot;&gt;&lt;b&gt;bit 1 di&amp;nbsp;SPRxCTL&lt;/b&gt;&lt;/font&gt;" style="text;html=1;align=center;verticalAlign=middle;whiteSpace=wrap;rounded=0;" vertex="1" parent="1">
          <mxGeometry x="50" y="410" width="220" height="30" as="geometry" />
        </mxCell>
      </root>
    </mxGraphModel>
  </diagram>
  <diagram id="pbsAtbgxrkfnA1YeDRt6" name="Pagina-3">
    <mxGraphModel dx="1426" dy="755" grid="1" gridSize="10" guides="1" tooltips="1" connect="1" arrows="1" fold="1" page="1" pageScale="1" pageWidth="1169" pageHeight="827" math="0" shadow="0">
      <root>
        <mxCell id="0" />
        <mxCell id="1" parent="0" />
        <mxCell id="KDm_LNFedWvT887LWTVj-1" value="&lt;b&gt;&lt;font style=&quot;font-size: 18px;&quot;&gt;Sprite&lt;/font&gt;&lt;/b&gt;" style="rounded=0;whiteSpace=wrap;html=1;" vertex="1" parent="1">
          <mxGeometry x="280" y="160" width="160" height="160" as="geometry" />
        </mxCell>
        <mxCell id="KDm_LNFedWvT887LWTVj-2" value="" style="endArrow=classic;startArrow=classic;html=1;rounded=0;" edge="1" parent="1">
          <mxGeometry width="50" height="50" relative="1" as="geometry">
            <mxPoint x="280" y="120" as="sourcePoint" />
            <mxPoint x="440" y="120" as="targetPoint" />
          </mxGeometry>
        </mxCell>
        <mxCell id="KDm_LNFedWvT887LWTVj-3" value="16 pixels" style="text;html=1;align=center;verticalAlign=middle;whiteSpace=wrap;rounded=0;fontStyle=1;fontSize=18;" vertex="1" parent="1">
          <mxGeometry x="315" y="80" width="90" height="30" as="geometry" />
        </mxCell>
        <mxCell id="KDm_LNFedWvT887LWTVj-4" value="" style="endArrow=classic;startArrow=classic;html=1;rounded=0;" edge="1" parent="1">
          <mxGeometry width="50" height="50" relative="1" as="geometry">
            <mxPoint x="480" y="320" as="sourcePoint" />
            <mxPoint x="480" y="160" as="targetPoint" />
          </mxGeometry>
        </mxCell>
        <mxCell id="KDm_LNFedWvT887LWTVj-5" value="&lt;b style=&quot;font-size: 18px;&quot;&gt;&lt;font style=&quot;font-size: 18px;&quot;&gt;Variable&lt;/font&gt;&lt;/b&gt;&lt;div style=&quot;font-size: 18px;&quot;&gt;&lt;b&gt;&lt;font style=&quot;font-size: 18px;&quot;&gt;Height&lt;/font&gt;&lt;/b&gt;&lt;/div&gt;" style="text;html=1;align=center;verticalAlign=middle;whiteSpace=wrap;rounded=0;" vertex="1" parent="1">
          <mxGeometry x="500" y="225" width="60" height="30" as="geometry" />
        </mxCell>
      </root>
    </mxGraphModel>
  </diagram>
  <diagram id="BNF34IvIwajBVFzW8px7" name="Pagina-4">
    <mxGraphModel dx="1426" dy="755" grid="1" gridSize="10" guides="1" tooltips="1" connect="1" arrows="1" fold="1" page="1" pageScale="1" pageWidth="1169" pageHeight="827" math="0" shadow="0">
      <root>
        <mxCell id="0" />
        <mxCell id="1" parent="0" />
        <mxCell id="97iH-Tef8MsyR72kaqj5-1" value="" style="endArrow=classic;html=1;rounded=0;startArrow=none;startFill=0;endFill=1;" edge="1" parent="1">
          <mxGeometry width="50" height="50" relative="1" as="geometry">
            <mxPoint x="160" y="80" as="sourcePoint" />
            <mxPoint x="600" y="80" as="targetPoint" />
          </mxGeometry>
        </mxCell>
        <mxCell id="97iH-Tef8MsyR72kaqj5-2" value="" style="endArrow=none;html=1;rounded=0;startArrow=classic;startFill=1;" edge="1" parent="1">
          <mxGeometry width="50" height="50" relative="1" as="geometry">
            <mxPoint x="160" y="320" as="sourcePoint" />
            <mxPoint x="160" y="80" as="targetPoint" />
          </mxGeometry>
        </mxCell>
        <mxCell id="97iH-Tef8MsyR72kaqj5-3" value="&lt;b&gt;&lt;font style=&quot;font-size: 18px;&quot;&gt;Sprite Origin O&lt;/font&gt;&lt;/b&gt;" style="text;html=1;align=center;verticalAlign=middle;whiteSpace=wrap;rounded=0;" vertex="1" parent="1">
          <mxGeometry x="90" y="40" width="140" height="30" as="geometry" />
        </mxCell>
        <mxCell id="97iH-Tef8MsyR72kaqj5-4" value="" style="rounded=0;whiteSpace=wrap;html=1;fillColor=#BDBDBD;strokeColor=#666666;fontColor=#333333;" vertex="1" parent="1">
          <mxGeometry x="280" y="160" width="320" height="160" as="geometry" />
        </mxCell>
        <mxCell id="97iH-Tef8MsyR72kaqj5-5" value="Sprite" style="rounded=0;whiteSpace=wrap;html=1;" vertex="1" parent="1">
          <mxGeometry x="370" y="210" width="120" height="60" as="geometry" />
        </mxCell>
        <mxCell id="97iH-Tef8MsyR72kaqj5-6" value="" style="endArrow=classic;startArrow=classic;html=1;rounded=0;" edge="1" parent="1">
          <mxGeometry width="50" height="50" relative="1" as="geometry">
            <mxPoint x="370" y="210" as="sourcePoint" />
            <mxPoint x="370" y="80" as="targetPoint" />
          </mxGeometry>
        </mxCell>
        <mxCell id="97iH-Tef8MsyR72kaqj5-7" value="" style="endArrow=classic;startArrow=classic;html=1;rounded=0;entryX=0;entryY=0;entryDx=0;entryDy=0;" edge="1" parent="1" target="97iH-Tef8MsyR72kaqj5-5">
          <mxGeometry width="50" height="50" relative="1" as="geometry">
            <mxPoint x="160" y="210" as="sourcePoint" />
            <mxPoint x="240" y="210" as="targetPoint" />
          </mxGeometry>
        </mxCell>
        <mxCell id="97iH-Tef8MsyR72kaqj5-8" value="" style="endArrow=classic;startArrow=classic;html=1;rounded=0;entryX=0;entryY=0.625;entryDx=0;entryDy=0;entryPerimeter=0;" edge="1" parent="1">
          <mxGeometry width="50" height="50" relative="1" as="geometry">
            <mxPoint x="160" y="160" as="sourcePoint" />
            <mxPoint x="280" y="160" as="targetPoint" />
          </mxGeometry>
        </mxCell>
        <mxCell id="97iH-Tef8MsyR72kaqj5-9" value="" style="endArrow=classic;startArrow=classic;html=1;rounded=0;" edge="1" parent="1">
          <mxGeometry width="50" height="50" relative="1" as="geometry">
            <mxPoint x="280" y="160" as="sourcePoint" />
            <mxPoint x="280" y="80" as="targetPoint" />
          </mxGeometry>
        </mxCell>
        <mxCell id="97iH-Tef8MsyR72kaqj5-10" value="&lt;b&gt;&lt;font style=&quot;font-size: 18px;&quot;&gt;44, $2C&lt;/font&gt;&lt;/b&gt;" style="text;html=1;align=center;verticalAlign=middle;whiteSpace=wrap;rounded=0;" vertex="1" parent="1">
          <mxGeometry x="280" y="110" width="80" height="30" as="geometry" />
        </mxCell>
        <mxCell id="97iH-Tef8MsyR72kaqj5-11" value="&lt;b&gt;&lt;font style=&quot;font-size: 18px;&quot;&gt;64, $40&lt;/font&gt;&lt;/b&gt;" style="text;html=1;align=center;verticalAlign=middle;whiteSpace=wrap;rounded=0;" vertex="1" parent="1">
          <mxGeometry x="180" y="160" width="80" height="30" as="geometry" />
        </mxCell>
      </root>
    </mxGraphModel>
  </diagram>
</mxfile>
